<?xml version="1.0" encoding="utf-8"?>
<svg viewBox="126.1972 75.546 245.931 194.231" xmlns="http://www.w3.org/2000/svg">
  <g>
    <path d="M 141.553 153.088 C 140.88 156.275 140.373 159.493 140.033 162.73 C 139.687 166.029 139.515 169.343 139.515 172.66 C 139.515 176.013 139.69 179.325 140.033 182.59 C 140.54 187.427 141.423 192.221 142.673 196.93 C 144.913 205.359 148.32 213.456 152.803 220.999 C 156.416 227.081 160.696 232.767 165.569 237.958 C 166.649 239.109 167.756 240.233 168.891 241.331 C 175.151 247.396 182.21 252.634 189.887 256.909 C 195.53 260.052 201.476 262.652 207.641 264.674 C 217.738 267.983 228.557 269.777 239.808 269.777 C 247.478 269.777 254.946 268.939 262.123 267.361 C 265.452 266.63 268.74 265.733 271.975 264.675 C 276.605 263.158 281.115 261.312 285.466 259.153 C 286.906 258.439 288.326 257.692 289.728 256.911 C 297.405 252.635 304.464 247.398 310.725 241.332 C 313.563 238.585 316.229 235.675 318.709 232.619 C 321.067 229.71 323.253 226.674 325.255 223.525 C 325.788 222.69 326.307 221.85 326.813 221 C 327.619 219.643 328.391 218.267 329.128 216.872 C 329.498 216.173 329.858 215.471 330.211 214.764 C 330.915 213.35 331.585 211.915 332.219 210.462 C 332.853 209.01 333.453 207.54 334.015 206.052 C 335.716 201.549 337.069 196.931 338.063 192.233 C 338.398 190.647 338.692 189.052 338.945 187.451 C 339.199 185.836 339.412 184.215 339.583 182.59 C 339.929 179.291 340.101 175.977 340.101 172.661 C 340.101 169.308 339.926 165.995 339.583 162.731 C 339.076 157.893 338.194 153.099 336.943 148.39 C 335.919 144.538 334.65 140.751 333.144 137.051 C 331.357 132.664 329.24 128.409 326.812 124.321 C 323.199 118.239 318.918 112.553 314.045 107.362 C 312.966 106.212 311.86 105.087 310.725 103.99 C 309.591 102.89 308.429 101.818 307.241 100.774 C 304.939 98.748 302.541 96.827 300.055 95.017 C 296.756 92.612 293.308 90.406 289.728 88.412 C 288.326 87.631 286.905 86.884 285.466 86.17 C 284.809 85.845 284.149 85.527 283.486 85.217 C 282.69 84.842 281.887 84.478 281.081 84.124 C 280.742 83.977 280.402 83.837 280.062 83.692 C 278.912 83.2 277.752 82.731 276.582 82.282 C 276.566 82.276 276.549 82.27 276.533 82.263 C 275.279 81.788 274.017 81.337 272.745 80.911 C 272.488 80.825 272.232 80.733 271.974 80.648 C 268.986 79.671 265.953 78.831 262.883 78.134 C 261.917 77.911 260.947 77.704 259.975 77.51 C 259.271 77.372 258.566 77.241 257.859 77.118 C 252.503 76.178 247.078 75.659 241.636 75.568 C 241.026 75.557 240.418 75.546 239.805 75.546 C 238.766 75.546 237.731 75.567 236.699 75.597 C 226.562 75.896 216.803 77.646 207.638 80.648 C 206.089 81.157 204.553 81.702 203.031 82.283 C 202.561 82.461 202.098 82.65 201.631 82.836 C 200.59 83.249 199.556 83.679 198.53 84.125 C 195.579 85.417 192.693 86.849 189.884 88.413 C 184.269 91.541 178.979 95.187 174.088 99.299 C 173.509 99.785 172.937 100.276 172.371 100.775 C 168.212 104.434 164.376 108.425 160.903 112.704 C 156.917 117.616 153.427 122.889 150.484 128.45 C 148.63 131.957 146.997 135.571 145.597 139.271 C 144.466 142.262 143.488 145.306 142.669 148.391 C 142.259 149.948 141.886 151.513 141.553 153.088 Z M 222.813 82.216 C 223.009 82.538 223.172 82.91 223.652 83.051 C 224.591 82.58 225.527 83.082 226.561 83.051 C 227.569 83.017 228.468 82.57 229.579 82.738 C 231.541 83.035 234.281 84.892 235.828 83.885 C 236.217 83.63 236.124 83.191 236.475 82.53 C 236.755 82.002 237.191 81.418 237.459 80.768 C 244.606 80.594 251.75 81.202 258.755 82.579 C 258.498 83.233 257.655 82.941 256.948 83.258 C 256.285 83.557 256.037 84.171 255.332 84.3 C 253.372 84.657 251.749 83.824 250.052 83.884 C 249.973 84.595 250.891 85.009 251.345 85.237 C 252.883 86.017 254.134 85.91 256.301 85.863 C 257.411 85.84 258.688 86.184 259.642 85.549 C 260.247 85.15 260.215 84.269 260.72 83.78 C 260.935 83.572 261.252 83.365 261.61 83.189 C 262.673 83.432 263.729 83.695 264.782 83.973 C 264.604 84.675 263.43 84.505 263.415 85.447 C 264.165 85.881 265.908 85.208 266.581 84.466 C 266.841 84.54 267.104 84.616 267.363 84.691 C 268.883 85.139 270.391 85.623 271.886 86.143 C 274.005 86.883 276.095 87.695 278.155 88.579 C 277.761 88.805 277.34 89.093 276.994 89.091 C 276.102 89.086 275.722 87.934 274.729 88.36 C 274.643 89.476 275.948 89.927 276.776 90.442 C 277.672 91.001 278.612 91.556 278.93 92.526 C 278.054 94.325 276.655 92.432 275.268 92.423 C 273.738 92.413 271.506 95.237 270.203 92.943 C 270.527 91.728 271.912 91.539 272.25 90.339 C 271.953 90.388 271.665 90.482 271.38 90.593 C 270.867 90.789 270.362 91.054 269.84 91.326 C 269.153 91.684 268.434 92.039 267.616 92.215 C 266.865 92.375 266.134 92.337 265.461 92.525 C 264.172 92.892 263.271 93.812 261.907 94.299 C 261.375 94.488 260.737 94.43 260.182 94.609 C 258.882 95.03 257.323 95.782 255.981 96.485 C 254.609 97.203 253.062 97.957 252.21 98.672 C 251.75 99.057 250.552 100.424 250.593 100.858 C 250.648 101.478 251.856 101.683 251.887 102.317 C 251.86 102.701 251.187 103.53 251.672 104.087 C 252.113 104.596 252.997 104.184 253.933 104.296 C 255.579 104.493 256.656 105.808 257.919 106.483 C 258.875 106.993 260.292 107.601 261.371 107.733 C 262.852 107.912 264.508 107.315 264.71 108.462 C 264.906 109.564 263.316 109.958 263.202 110.649 C 264 111.667 262.661 112.154 262.664 113.046 C 262.668 113.769 263.583 114.853 264.387 114.918 C 265.472 115.007 267.062 113.885 267.513 112.836 C 268.05 111.586 267.822 109.892 268.807 108.982 C 273.827 109.117 278.075 106.778 277.752 101.797 C 277.719 101.305 277.43 100.671 277.537 100.13 C 277.694 99.324 279.126 98.649 278.936 97.631 C 279.477 97.469 279.802 97.046 280.078 96.57 C 280.491 95.859 280.813 95.048 281.58 94.78 C 281.634 94.76 281.679 94.727 281.738 94.715 C 282.177 94.619 282.637 94.703 283.119 94.841 C 283.98 95.088 284.913 95.511 285.939 95.444 C 286.461 95.409 287.14 94.956 287.665 95.028 C 288.718 95.17 289.351 96.425 290.144 97.007 C 290.843 97.524 291.581 97.359 291.759 98.048 C 291.553 99.204 290.721 99.247 290.789 100.309 C 290.79 100.321 290.788 100.328 290.788 100.34 C 290.867 101.294 291.892 102.018 292.405 102.112 C 293.19 102.254 294.315 101.846 295.099 101.486 C 295.946 101.099 296.719 100.262 297.458 99.68 C 298.513 100.464 299.553 101.268 300.575 102.093 C 300.691 102.556 300.773 102.973 300.81 103.256 C 300.961 104.382 300.653 105.242 300.704 106.279 C 300.842 108.035 303.132 107.856 304.258 108.776 C 304.598 109.056 304.731 109.769 305.014 110.131 C 305.562 110.836 306.222 110.836 306.307 111.588 C 306.509 113.387 304.62 113.539 304.797 115.547 C 304.407 116.324 303.425 116.277 303.503 117.316 C 303.629 118.961 306.073 117.701 306.737 118.983 C 307.096 119.673 306.678 120.186 306.412 121.168 C 307.249 122.131 307.243 123.667 305.768 123.67 C 304.872 123.67 304.625 122.738 303.719 122.523 C 303.216 122.401 302.53 122.425 301.889 122.315 C 301.339 122.221 300.686 122.063 300.166 122.003 C 298.835 121.85 297.395 122.224 296.609 121.482 C 297.891 119.836 299.594 118.213 301.244 116.796 C 301.733 116.372 302.786 116.083 302.536 115.233 C 301.618 114.455 300.493 115.282 299.627 115.754 C 298.719 116.248 297.634 116.961 296.609 117.108 C 294.827 117.364 292.463 116.603 291.006 117.524 C 290.806 118.31 292.665 118.004 292.406 119.191 C 291.693 119.304 291.018 119.359 290.468 118.877 C 289.967 118.442 290.255 117.785 289.93 117.523 C 289.378 117.081 287.301 116.96 286.373 117.107 C 285.241 117.286 284.24 117.942 284.109 118.877 C 285.469 119.493 287.711 118.243 288.204 119.816 C 287.459 121.112 285.704 121.826 285.94 123.564 C 286.032 124.235 286.858 125.132 287.45 125.231 C 288.047 125.331 288.382 124.76 288.957 124.812 C 289.567 124.868 289.429 125.54 290.144 125.439 C 291.181 125.011 291.755 123.604 292.944 123.669 C 294.369 125.342 291.657 126.158 290.144 126.689 C 288.419 127.293 286.176 127.614 284.863 128.149 C 284.174 128.427 281.568 130.863 281.199 128.98 C 280.936 127.622 282.489 128.015 282.816 126.897 C 281.147 126.584 279.594 127.591 278.076 128.15 C 275.91 128.942 272.239 129.444 271.716 131.795 C 271.613 132.266 271.928 133.146 271.61 133.459 C 271.351 133.712 269.806 133.758 269.131 133.98 C 268.092 134.325 267.185 135.062 266.543 135.23 C 266.058 135.359 265.342 135.322 265.035 135.441 C 264.179 135.762 263.863 136.881 262.881 137.626 C 262.479 137.93 261.585 138.152 261.264 138.459 C 260.707 138.996 260.632 140.34 259.648 140.542 C 259.022 140.594 258.513 140.087 257.924 140.436 C 257.852 141.765 258.408 143.572 257.817 144.915 C 256.541 145.921 255.139 146.632 253.507 147.519 C 252.603 148.012 251.795 148.137 250.704 148.666 C 249.931 149.039 249.224 149.928 248.334 150.436 C 246.276 151.606 243.793 152.991 243.808 155.957 C 243.812 156.598 244.154 157.29 244.238 158.04 C 244.29 158.481 244.184 158.912 244.238 159.394 C 244.366 160.482 245.182 161.869 244.238 162.622 C 242.788 162.046 240.943 161.851 239.929 160.852 C 239.651 159.824 240.489 158.976 240.361 158.04 C 240.258 157.287 239.164 155.947 238.527 155.851 C 237.871 155.752 237.267 156.425 236.59 156.372 C 235.784 156.31 235.035 155.238 234.001 155.122 C 232.485 154.951 231.37 155.457 229.691 155.228 C 228.066 156.067 227.591 157.561 225.6 157.414 C 224.898 157.363 224.255 156.845 223.445 156.685 C 222.566 156.509 221.233 156.209 220.318 156.27 C 218.483 156.388 217.154 157.664 215.577 158.455 C 214.187 159.155 212.22 160.026 211.806 161.476 C 211.58 162.257 211.771 163.357 211.483 164.08 C 211.291 164.556 210.875 164.98 210.62 165.431 C 209.412 167.565 208.41 170.385 209.327 173.453 C 209.464 173.909 210.664 176.476 211.158 176.994 C 211.714 177.57 213.349 178.435 214.282 178.451 C 215.071 178.467 215.997 178.063 216.762 177.931 C 217.648 177.779 218.758 177.765 219.564 177.516 C 221.893 176.795 221.434 173.749 223.766 172.723 C 224.783 172.278 225.961 172.189 227.752 172.1 C 228.32 172.562 228.587 173.373 228.508 174.077 C 228.448 174.609 227.925 175.091 227.646 175.849 C 227.401 176.513 227.349 177.292 227.107 177.828 C 226.786 178.531 226.07 179.044 225.814 179.703 C 225.646 180.133 225.738 180.667 225.6 181.055 C 225.352 181.741 224.402 182.225 224.844 182.931 C 227.151 183.818 229.943 182.679 231.956 183.036 C 232.806 183.186 234.558 184.167 234.541 185.433 C 234.531 186.379 233.785 187 233.68 188.037 C 233.549 189.34 232.985 190.938 232.926 191.994 C 232.83 193.721 235.548 196.703 237.45 196.68 C 239.5 196.654 240.694 194.71 243.163 195.744 C 243.982 196.086 244.847 197.37 245.751 197.306 C 246.497 197.254 247.623 195.991 248.121 195.117 C 248.729 194.052 248.772 193.156 249.844 192.619 C 251.001 192.04 251.921 192.319 253.401 191.785 C 254.062 191.548 254.637 191.141 255.232 190.743 C 255.754 190.396 256.305 189.487 256.957 190.117 C 257.818 190.948 255.904 191.416 256.632 192.305 C 258.127 193.07 258.892 190.882 259.975 190.848 C 260.319 190.838 261.514 191.498 262.129 191.889 C 262.969 192.423 263.255 193.173 264.175 193.347 C 264.766 193.46 265.716 193.128 266.547 193.242 C 267.647 193.394 268.301 194.307 269.134 194.282 C 270.149 194.256 270.636 193.188 271.505 193.033 C 273.407 192.696 274.115 193.238 274.952 194.387 C 275.892 194.544 275.925 193.338 276.784 193.764 C 276.313 194.671 276.945 195.089 277.322 195.846 C 277.567 196.332 277.527 196.677 277.755 196.888 C 278.269 197.362 279.261 197.362 280.015 197.823 C 280.811 198.307 281.259 199.207 282.171 200.22 C 283.109 201.257 284.688 202.33 285.941 202.406 C 287.126 202.48 288.089 202.082 289.068 202.198 C 291.298 202.463 292.683 203.539 294.242 204.699 C 295.113 205.346 295.899 205.796 296.179 206.572 C 296.376 207.113 296.28 207.84 296.503 208.447 C 296.98 209.744 298.936 210.37 298.229 212.612 C 298.552 213.27 299.278 213.507 300.059 213.966 C 300.684 214.335 301.213 215.112 301.89 215.217 C 302.328 215.285 302.804 215.088 303.183 215.112 C 304.408 215.194 305.248 215.653 306.31 216.051 C 306.969 216.296 307.812 216.39 308.25 216.677 C 308.797 217.034 308.868 218.234 309.543 218.55 C 309.984 218.757 310.963 218.471 311.698 218.55 C 312.854 218.679 314.424 219.365 315.469 219.384 C 316.103 219.398 316.629 219.133 317.192 219.176 C 318.5 219.273 319.528 220.072 320.543 220.966 C 307.563 241.23 286.678 256.269 262.09 262.017 C 261.999 261.104 261.738 260.185 261.696 259.275 C 261.612 257.295 261.923 255.897 261.591 254.068 C 261.341 252.684 261.029 250.564 260.513 249.693 C 259.935 248.725 257.669 247.079 256.526 246.464 C 255.772 246.059 254.869 245.917 254.048 245.527 C 252.293 244.694 248.891 242.937 248.121 241.256 C 247.898 240.772 247.928 240.132 247.688 239.591 C 247.221 238.523 246.233 237.598 245.534 236.569 C 244.203 234.604 243.128 232.14 241.763 230.112 C 241.072 229.081 240.473 227.913 239.716 227.092 C 239.272 226.608 237.852 226.153 237.67 225.426 C 237.427 224.462 236.69 223.14 236.807 222.403 C 236.963 221.409 238.965 220.604 238.962 219.697 C 238.959 218.926 237.893 218.476 237.67 217.822 C 237.126 216.23 237.989 215.295 238.638 213.969 C 238.853 213.533 239.063 212.832 239.286 212.512 C 239.681 211.938 240.483 211.777 241.009 211.158 C 241.303 210.81 241.488 210.086 241.871 209.594 C 242.691 208.542 244.013 208.148 244.35 207.199 C 244.624 206.425 244.786 202.557 244.456 201.263 C 244.268 200.513 243.548 199.89 243.273 199.18 C 242.785 197.923 242.671 196.549 241.331 196.576 C 240.506 196.593 239.922 197.476 239.391 198.033 C 239.264 198.775 239.331 199.576 238.529 199.803 C 237.304 200.153 236.835 198.557 235.405 198.138 C 234.837 197.971 233.931 197.981 233.575 197.826 C 232.531 197.373 232.195 195.897 231.095 195.325 C 230.176 194.849 229.389 195.014 228.831 194.283 C 228.599 193.78 228.782 192.874 228.725 192.2 C 227.544 191.532 226.543 189.041 225.168 188.453 C 224.256 188.061 222.861 188.097 221.721 187.723 C 221.185 187.548 220.771 187.321 220.21 187.204 C 219.519 187.054 218.808 187.046 218.274 186.786 C 216.14 185.763 214.989 182.446 212.347 182.517 C 211.221 182.545 210.135 183.564 209.114 183.558 C 208.099 183.553 206.398 182.775 205.124 182.204 C 203.802 181.609 202.337 181.286 201.247 180.747 C 200.365 180.31 199.753 179.512 198.983 179.181 C 198.392 178.928 197.529 178.884 197.046 178.663 C 196.357 178.347 195.638 177.674 194.782 177.098 C 193.968 176.554 193.088 175.722 193.057 175.018 C 193.022 174.202 193.832 173.508 193.919 172.724 C 194.197 170.244 192.306 168.462 191.116 166.996 C 190.235 165.908 189.2 164.984 188.316 163.977 C 188.366 163.307 188.366 163.187 188.316 162.519 C 187.647 161.891 187.084 160.959 186.376 160.018 C 185.737 159.17 184.49 158.264 184.329 157.312 C 184.131 156.142 184.789 155.113 184.329 153.977 C 183.563 152.092 180.854 152.944 181.202 155.437 C 181.3 156.123 182.302 157.047 182.604 157.728 C 182.915 158.423 182.854 159.288 183.143 160.124 C 183.421 160.925 184.256 161.618 184.546 162.52 C 185.002 163.947 184.988 165.483 185.407 166.374 C 185.777 167.166 187.141 167.915 186.376 168.873 C 185.356 169.078 184.964 168.092 184.33 167.519 C 183.976 167.2 182.694 166.596 182.498 165.853 C 182.336 165.241 182.901 164.416 182.713 163.666 C 182.343 162.196 179.274 162.158 179.263 160.646 C 179.257 159.697 180.547 159.584 180.558 158.665 C 180.567 157.661 179.141 156.81 178.833 155.958 C 178.553 155.177 178.508 153.933 178.404 152.834 C 178.302 151.803 178.433 150.608 178.186 149.812 C 177.964 149.097 176.853 148.113 176.139 147.729 C 175.196 147.221 174.447 147.432 173.984 146.688 C 173.582 146.039 173.317 144.681 173.23 143.982 C 173.075 142.728 173.195 141.359 173.122 140.022 C 173.052 138.684 172.909 137.4 173.122 135.961 C 173.655 134.954 174.627 134.458 175.17 133.459 C 175.549 132.766 175.603 131.908 176.03 131.169 C 176.82 129.809 178.54 128.552 179.696 127.211 C 180.942 125.766 182.09 124.382 182.82 122.731 C 183.081 122.145 183.782 120.846 183.682 120.127 C 183.541 119.125 181.587 118.299 181.741 117.107 C 181.839 116.368 182.928 116.379 183.251 115.65 C 183.418 115.274 183.567 114.223 183.576 113.774 C 183.592 112.77 183.043 111.723 183.251 110.65 C 183.429 109.734 184.838 109.364 184.114 108.358 C 183.395 107.364 182.106 108.896 181.311 108.254 C 180.582 107.662 181.458 106.947 181.526 105.858 C 181.552 105.424 181.264 104.929 181.311 104.608 C 181.376 104.143 182.315 103.359 182.065 103.046 C 181.676 102.569 181.249 101.606 180.641 100.838 C 192.659 91.528 207.064 84.983 222.813 82.216 Z" style="stroke-width: 4px; fill: rgba(255, 255, 255, 0); stroke: rgb(0, 0, 0);">
      <title>earth</title>
    </path>
    <g transform="matrix(1, 0, 0, 1, -297.962006, -115.108002)">
      <path d="M 559.663 299.115 L 521.872 280.821 L 578.559 216.791 L 559.663 299.115 Z" fill="#e74c3c" style=""/>
      <path d="M 521.872 280.821 L 559.663 299.115 L 502.976 363.146 L 521.872 280.821 Z" fill="#ecf0f1" style=""/>
      <path d="M 578.559 216.791 L 540.767 289.968 L 559.663 299.115 L 578.559 216.791 Z" fill="#c0392b" style=""/>
      <path d="M 540.767 280.821 C 535.552 280.821 531.32 284.48 531.32 289.968 L 550.215 289.968 C 550.215 284.48 545.983 280.821 540.767 280.821 Z M 540.767 289.968 L 502.976 363.146 L 559.663 299.115 L 540.767 289.968 Z" fill="#bdc3c7" style=""/>
      <path d="M 540.767 299.115 C 545.983 299.115 550.215 294.542 550.215 289.968 L 531.32 289.968 C 531.32 294.542 535.552 299.115 540.767 299.115 Z" fill="#7f8c8d" style=""/>
    </g>
    <path style="fill: none; stroke-dasharray: 15; stroke-width: 3px; stroke: rgb(52, 73, 82);" d="M 138.991 169.333 C 89.923 239.57 188.914 283.676 318.093 178.429"/>
    <g transform="matrix(1, 0, 0, 1, 24.475969, -48.028404)">
      <path data-name="Path 3709" d="M 346.933 175.516 C 346.23 174.934 345.169 174.768 344.257 175.096 L 272.063 201.096 C 270.357 201.711 270.098 203.622 271.594 204.535 C 271.713 204.607 271.838 204.669 271.969 204.722 L 292.245 212.857 L 296.48 225.519 C 296.48 225.539 296.511 225.549 296.521 225.569 C 296.586 225.747 296.712 225.907 296.884 226.029 L 296.905 226.039 C 296.917 226.039 296.934 226.051 296.949 226.059 C 297.149 226.185 297.394 226.253 297.645 226.259 L 297.688 226.259 C 297.838 226.253 297.986 226.223 298.123 226.171 C 298.157 226.159 298.186 226.139 298.22 226.125 C 298.334 226.071 298.435 226.005 298.525 225.925 C 298.542 225.909 298.566 225.905 298.583 225.887 L 302.435 221.974 L 311.601 237.492 C 312.007 238.179 312.85 238.615 313.776 238.613 L 313.827 238.613 C 314.774 238.601 315.623 238.132 316.002 237.414 L 347.453 177.732 C 347.849 176.974 347.644 176.095 346.933 175.516 Z M 333.296 183.404 L 293.766 209.074 L 278.795 203.032 L 333.296 183.404 Z M 301.534 214.461 L 301.517 214.483 L 301.534 214.461 Z M 299.803 221.481 L 300.49 218.684 L 301.268 220 L 299.803 221.481 Z M 313.651 231.847 L 302.774 213.436 L 339.235 183.294 L 313.651 231.847 Z" style="stroke: rgb(0, 0, 0);" fill="#344952"/>
      <path style="fill: rgb(255, 255, 255);" d="M 302.867 213.325 L 313.561 231.765 L 339.394 183.149 L 302.867 213.325 Z"/>
      <path style="fill: rgb(255, 255, 255);" d="M 279.345 202.972 L 293.629 209.013 C 293.64 209.012 334.007 183.277 333.252 183.371 L 279.345 202.972 Z"/>
      <path style="fill: rgb(255, 255, 255);" d="M 330.096 188.024 L 330.096 188.024 L 299.552 213.275 C 299.384 213.414 299.269 213.59 299.221 213.782 L 297.466 220.957 L 294.239 211.306 L 330.096 188.024 Z"/>
    </g>
  </g>
</svg>