<?xml version="1.0" encoding="utf-8"?>
<svg viewBox="177.514 278.9339 129.262 130.702" xmlns="http://www.w3.org/2000/svg">
  <rect x="0.794" y="-0.056" width="129.262" height="130.702" style="fill-rule: nonzero; fill: none;" transform="matrix(1, 0, 0, 1, 176.71995544433594, 278.9898986816406)">
    <title>viewBox</title>
  </rect>
  <path d="M 54.222 4.743 C 54.222 4.743 57.646 3.252 68.132 3.618 C 74.056 3.886 80.858 5.365 86.933 7.786 C 94.159 10.713 102.505 15.765 108.037 21.482 C 114.6 28.406 118.825 35.254 121.117 40.489 C 123.355 45.657 125.704 53.357 126.098 62.324 C 126.214 65.531 126.099 67.917 125.937 70.234 C 125.91 70.901 125.862 73.43 124.84 77.993 C 124.281 80.388 124.159 81.17 123.934 81.981 C 123.701 82.816 123.401 83.525 122.581 85.702 C 120.908 90.088 120.98 89.426 120.98 89.426 C 120.886 89.629 117.682 87.697 115.846 86.439 C 116.19 85.29 116.077 85.553 116.967 83.584 C 117.974 81.358 118.024 80.839 118.153 80.375 C 118.288 79.886 118.396 79.236 118.994 76.639 C 119.94 72.712 119.942 70.016 119.942 70.016 C 120.102 67.747 120.22 65.493 120.102 62.552 C 119.842 54.362 117.739 47.745 115.615 42.881 C 113.517 38.02 109.874 32.046 103.697 25.626 C 98.791 20.409 91.495 16.069 84.693 13.352 C 79.1 11.079 73.294 9.814 67.884 9.612 C 58.309 9.144 54.37 10.348 54.37 10.348 L 54.222 4.743 Z" style="" transform="matrix(1, 0, 0, 1, 176.71995544433594, 278.9898986816406)">
    <title>arc-top-right</title>
  </path>
  <path style="stroke-width: 6px; fill: none; paint-order: stroke; stroke: rgb(0, 0, 0);" d="M 43.496 10.56 C 43.496 10.56 40.735 11.563 39.838 12.031 C 38.152 12.91 35.791 14.084 33.277 15.709 C 30.764 17.334 28.298 19.144 26.269 20.894 C 24.317 22.578 22.531 24.402 20.797 26.332 C 19.063 28.261 17.749 30.027 16.406 31.994 C 15.209 33.748 13.872 35.754 12.988 37.56 C 12.104 39.366 11.172 41.106 10.449 42.995 C 9.722 44.895 8.955 46.881 8.416 48.883 C 7.878 50.886 7.401 52.903 7.053 54.863 C 6.722 56.728 6.499 58.579 6.334 60.425 C 6.17 62.271 6.197 64.079 6.231 65.925 C 6.265 67.77 6.254 69.556 6.477 71.385 C 6.7 73.215 6.89 75.122 7.329 77.008 C 7.814 79.091 8.311 81.252 9.079 83.448 C 9.847 85.645 10.751 87.876 11.651 89.831 C 12.474 91.62 13.434 93.27 14.357 94.875 C 15.28 96.48 16.3 98.041 17.514 99.652 C 18.916 101.513 20.601 103.636 22.419 105.535 C 24.238 107.434 26.19 109.109 27.994 110.611 C 29.577 111.929 31.103 113.069 32.691 114.11 C 34.279 115.151 35.928 116.093 37.758 117.016 C 39.821 118.056 42.043 119.072 44.379 119.962 C 46.714 120.853 49.163 121.617 51.678 122.154 C 54.461 122.748 57.523 123.177 60.624 123.395 C 63.726 123.613 66.868 123.62 69.812 123.373 C 72.679 123.132 75.603 122.624 78.443 121.929 C 81.283 121.234 84.039 120.352 86.567 119.365 C 88.874 118.464 91.098 117.357 93.198 116.154 C 95.299 114.951 97.276 113.652 99.092 112.365 C 100.689 111.233 102.217 109.966 103.621 108.697 C 105.026 107.428 106.308 106.157 107.413 105.018 C 108.247 104.158 108.947 103.356 109.594 102.561 C 110.241 101.767 110.835 100.981 111.457 100.153 C 112.058 99.353 112.888 98.129 113.567 97.105 C 114.245 96.082 114.774 95.258 114.774 95.258" transform="matrix(1, 0, 0, 1, 176.71995544433594, 278.9898986816406)">
    <title>arc-bottom-left</title>
  </path>
  <path d="M 42.468 7.743 L 44.615 7.091 L 44.623 10.585 L 44.736 35.675 L 44.849 60.765 L 64.839 60.765 L 84.829 60.765 C 84.821 59.98 84.862 62.561 84.901 65.171 C 84.939 67.781 84.975 70.42 84.956 69.752 C 84.642 69.78 83.687 69.837 82.283 69.887 C 80.879 69.938 79.025 69.981 76.913 69.981 L 54.535 70.031 L 32.157 70.08 L 32.167 45.004 L 32.177 19.929" fill="black" style="" transform="matrix(1, 0, 0, 1, 176.71995544433594, 278.9898986816406)">
    <title>L</title>
  </path>
  <path d="M 116.171 96.246 C 117.871 97.242 107.208 104.951 104.801 103.385 C 102.646 101.983 100.117 100.303 96.449 97.433 L 89.537 90.521 C 86.721 87.641 83.617 85.529 80.225 84.185 C 76.897 82.841 72.705 82.169 67.649 82.169 L 64.673 82.169 L 64.673 103.577 L 52.001 103.577 L 52.001 54.809 L 51.943 47.033 L 93.569 47.033 C 97.665 47.033 100.865 47.577 103.169 48.665 C 105.537 49.753 107.265 51.193 108.353 52.985 C 109.505 54.713 110.241 56.569 110.561 58.553 C 110.881 60.537 111.041 62.425 111.041 64.217 L 111.041 66.041 C 111.041 67.449 110.849 69.017 110.465 70.745 C 110.081 72.473 109.345 74.169 108.257 75.833 C 107.169 77.497 105.601 78.905 103.553 80.057 C 101.569 81.209 98.945 81.881 95.681 82.073 C 96.513 82.521 97.569 83.225 98.849 84.185 C 100.129 85.081 101.441 86.073 102.785 87.161 C 104.193 88.249 105.239 88.895 106.435 89.814 C 107.631 90.733 109.08 91.597 109.72 91.981 C 112.024 93.325 114.471 95.25 116.171 96.246 Z M 79.073 73.433 C 81.505 73.433 83.681 73.401 85.601 73.337 C 87.521 73.209 89.249 73.081 90.785 72.953 C 93.601 72.633 95.553 71.865 96.641 70.649 C 97.793 69.369 98.369 67.737 98.369 65.753 L 98.369 63.545 C 98.369 61.497 97.825 59.769 96.737 58.361 C 95.649 56.953 93.697 56.249 90.881 56.249 L 64.673 56.249 L 64.673 72.953 C 67.489 73.145 70.081 73.273 72.449 73.337 C 74.817 73.401 77.025 73.433 79.073 73.433 Z" style="paint-order: fill;" transform="matrix(1, 0, 0, 1, 176.71995544433594, 278.9898986816406)">
    <title>R</title>
  </path>
</svg>